Coordinates
version=1
nRows=21
nColumns=12
inDegrees=yes

Units are S.I. units (second, meters, Newtons, ...)
Angles are in degrees

endheader
time	SC_y	SC_z	SC_x	AC_y	AC_z	AC_x	GH_y	GH_z	GH_yy	EL_x	PS_y
       0.0              -47.38          3.183          75.52          68.67          -4.36          7.379          86.49           40.6         -100.3          74.86          126.3
   0.04114              -47.38          3.185          75.51          68.66         -4.359          7.377          86.49          40.59         -100.3          74.86          126.3
   0.08227              -47.38          3.187           75.5          68.66         -4.358          7.376          86.49          40.58         -100.2          74.87          126.3
    0.1234              -47.38          3.188          75.49          68.65         -4.357          7.374          86.48          40.57         -100.2          74.88          126.2
    0.1645              -47.38          3.191          75.47          68.65         -4.356          7.373          86.48          40.56         -100.1          74.89          126.2
    0.2057              -47.38          3.193          75.46          68.64         -4.355          7.371          86.48          40.55         -100.1           74.9          126.2
    0.2468              -47.38          3.195          75.45          68.63         -4.354          7.369          86.48          40.54         -100.0          74.91          126.2
     0.288              -47.38          3.197          75.44          68.63         -4.353          7.367          86.48          40.52         -99.97          74.92          126.2
    0.3291              -47.38            3.2          75.42          68.62         -4.351          7.365          86.47          40.51         -99.91          74.93          126.1
    0.3702              -47.38          3.203           75.4          68.61          -4.35          7.363          86.47          40.49         -99.85          74.94          126.1
    0.4114              -47.38          3.206          75.39           68.6         -4.348           7.36          86.47          40.48         -99.77          74.95          126.1
    0.4525              -47.38          3.209          75.37           68.6         -4.347          7.358          86.46          40.46          -99.7          74.96          126.0
    0.4936              -47.38          3.213          75.35          68.59         -4.345          7.355          86.46          40.44         -99.62          74.98          126.0
    0.5348              -47.37          3.217          75.33          68.58         -4.343          7.352          86.46          40.42         -99.53          74.99          126.0
    0.5759              -47.37          3.221          75.31          68.57         -4.341          7.349          86.45           40.4         -99.43          75.01          125.9
    0.6171              -47.37          3.225          75.28          68.55         -4.338          7.345          86.45          40.38         -99.33          75.03          125.9
    0.6582              -47.37           3.23          75.25          68.54         -4.336          7.341          86.44          40.35         -99.21          75.05          125.8
    0.6993              -47.37          3.235          75.22          68.53         -4.333          7.337          86.44          40.32         -99.09          75.07          125.8
    0.7405              -47.37          3.241          75.19          68.51          -4.33          7.332          86.43          40.29         -98.96          75.09          125.7
    0.7816              -47.37          3.248          75.16           68.5         -4.327          7.327          86.42          40.26         -98.81          75.12          125.7
    0.8227              -47.37          3.254          75.12          68.48         -4.324          7.321          86.42          40.23         -98.65          75.15          125.6
